<svg version="1.1" xmlns="http://www.w3.org/2000/svg" xmlns:xlink="http://www.w3.org/1999/xlink"><defs/><g><path fill="rgb(255,255,255)" stroke="none" paint-order="stroke fill markers" fill-rule="evenodd" d=" M 199.13505744934082 342.793884575367 C 199.13505744934082 342.793884575367 80.25955200195312 223.99998134374619 80.25955200195312 223.99998134374619 C 80.25955200195312 223.99998134374619 199.13505744934082 105.2060781121254 199.13505744934082 105.2060781121254 C 199.13505744934082 105.2060781121254 318.0105628967285 223.99998134374619 318.0105628967285 223.99998134374619 C 318.0105628967285 223.99998134374619 199.13505744934082 342.793884575367 199.13505744934082 342.793884575367 Z M 202.1369400024414 342.793884575367 C 202.1369400024414 342.793884575367 83.26164245605469 223.99998134374619 83.26164245605469 223.99998134374619 C 83.26164245605469 223.99998134374619 202.1369400024414 105.2060781121254 202.1369400024414 105.2060781121254 C 202.1369400024414 105.2060781121254 321.0126533508301 223.99998134374619 321.0126533508301 223.99998134374619 C 321.0126533508301 223.99998134374619 202.1369400024414 342.793884575367 202.1369400024414 342.793884575367 Z M 78.05205917358398 275.00010973215103 C 78.05205917358398 275.00010973215103 1.9997940063476562 275.00010973215103 1.9997940063476562 275.00010973215103 C 1.9997940063476562 275.00010973215103 1.9997940063476562 168.00005441904068 1.9997940063476562 168.00005441904068 C 1.9997940063476562 168.00005441904068 78.05205917358398 168.00005441904068 78.05205917358398 168.00005441904068 C 78.05205917358398 168.00005441904068 78.05205917358398 275.00010973215103 78.05205917358398 275.00010973215103 Z M 272.1850242614746 410.00012850761414 C 272.1850242614746 410.00012850761414 122.0821647644043 410.00012850761414 122.0821647644043 410.00012850761414 C 122.0821647644043 410.00012850761414 122.0821647644043 1.0000150203704834 122.0821647644043 1.0000150203704834 C 122.0821647644043 1.0000150203704834 272.1850242614746 1.0000150203704834 272.1850242614746 1.0000150203704834 C 272.1850242614746 1.0000150203704834 272.1850242614746 410.00012850761414 272.1850242614746 410.00012850761414 Z"/></g></svg>