<svg version="1.1" xmlns="http://www.w3.org/2000/svg" xmlns:xlink="http://www.w3.org/1999/xlink" width="16" height="17"><defs/><g><path fill="rgb(80,174,48)" stroke="none" paint-order="stroke fill markers" fill-rule="evenodd" d=" M 12.95817756652832 15.05836021900177 C 12.95817756652832 15.05836021900177 9.561075210571289 11.660898864269257 9.561075210571289 11.660898864269257 C 8.688722610473633 12.260656356811523 7.61720085144043 12.623523831367493 6.4722900390625 12.623523831367493 C 3.4564781188964844 12.623523831367493 1.0038700103759766 10.171002566814423 1.0038700103759766 7.155403554439545 C 1.0038700103759766 4.1395862102508545 3.4564781188964844 1.7049681544303894 6.4722900390625 1.7049681544303894 C 9.488517761230469 1.7049681544303894 11.922622680664062 4.1395862102508545 11.922622680664062 7.155403554439545 C 11.922622680664062 8.31823879480362 11.577299118041992 9.371689796447754 10.959833145141602 10.261828601360321 C 10.959833145141602 10.261828601360321 14.356935501098633 13.659071624279022 14.356935501098633 13.659071624279022 C 14.356935501098633 13.659071624279022 12.95817756652832 15.05836021900177 12.95817756652832 15.05836021900177 Z M 6.4722900390625 10.807003140449524 C 8.470426559448242 10.807003140449524 10.105775833129883 9.17191618680954 10.105775833129883 7.155403554439545 C 10.105775833129883 5.157230794429779 8.470426559448242 3.5217071771621704 6.4722900390625 3.5217071771621704 C 4.45585823059082 3.5217071771621704 2.8207168579101562 5.157230794429779 2.8207168579101562 7.155403554439545 C 2.8207168579101562 9.17191618680954 4.45585823059082 10.807003140449524 6.4722900390625 10.807003140449524 Z"/></g></svg>